Coordinates
version=1
nRows=18
nColumns=22
inDegrees=yes

Units are S.I. units (second, meters, Newtons, ...)
If the header above contains a line with 'inDegrees', this indicates whether rotational values are in degrees (yes) or radians (no).

endheader
time	pelvis_tilt	pelvis_list	pelvis_rotation	pelvis_tx	pelvis_ty	pelvis_tz	hip_flexion_r	hip_adduction_r	hip_rotation_r	knee_angle_r	ankle_angle_r	subtalar_angle_r	hip_flexion_l	hip_adduction_l	hip_rotation_l	knee_angle_l	ankle_angle_l	subtalar_angle_l	lumbar_extension	lumbar_bending	lumbar_rotation
      3.35000000	     -2.51879939	      5.04528417	      7.52248911	     -0.19971348	      0.91793436	     -0.40750266	     24.72236204	     -1.01900292	     -3.66290043	    -69.21342257	     -1.83515162	     -0.65121661	      8.80060868	     -1.11673273	     -3.89255545	    -24.97242280	     14.41551144	      2.43832047	    -10.56815483	     -7.47381697	     -4.03247888
      3.36000000	     -2.30436937	      4.81641948	      6.82626673	     -0.19293217	      0.91846825	     -0.40799585	     25.81437386	     -0.58405795	     -4.28873358	    -68.04664573	     -0.99939135	     -0.26443682	      7.82948589	     -1.42406337	     -4.44542494	    -24.59092860	     14.66910895	      2.28594718	    -10.89240690	     -7.16428554	     -4.74944208
      3.37000000	     -2.21176866	      4.62707174	      6.18455423	     -0.18618886	      0.91869392	     -0.40850646	     26.94418021	     -0.27263966	     -4.94738826	    -66.64598440	     -0.14770247	      0.18003631	      6.98815651	     -1.65835454	     -4.99520785	    -24.21281680	     14.89636133	      2.20269814	    -11.07717005	     -6.90633378	     -5.47622394
      3.38000000	     -2.20123840	      4.48366843	      5.57941054	     -0.17944207	      0.91867799	     -0.40901802	     28.06232017	     -0.08794877	     -5.63847122	    -65.01505524	      0.70741026	      0.55770096	      6.22446101	     -1.82320891	     -5.56873176	    -23.82519088	     15.08331448	      2.15946625	    -11.16695893	     -6.69952229	     -6.19841362
      3.39000000	     -2.15199737	      4.35636539	      4.97324779	     -0.17261117	      0.91865231	     -0.40944373	     29.01480063	      0.05533482	     -6.30554805	    -63.11233933	      1.39128360	      1.16346383	      5.36775947	     -1.96047790	     -6.15479134	    -23.36121875	     15.32199569	      2.09436729	    -11.29768798	     -6.49686577	     -6.92934765
      3.40000000	     -2.17392494	      4.27385094	      4.38237803	     -0.16571951	      0.91839934	     -0.40983041	     29.93046333	      0.09359518	     -6.98026905	    -60.98772450	      2.06396579	      1.56629310	      4.56327478	     -2.03138638	     -6.77835129	    -22.86823317	     15.53653400	      2.05490961	    -11.33956627	     -6.34504097	     -7.62945429
      3.41000000	     -2.23129997	      4.21880136	      3.79671679	     -0.15873069	      0.91798538	     -0.41012925	     30.75790349	      0.06819508	     -7.65339580	    -58.62804675	      2.66798420	      1.81355685	      3.76376840	     -2.06038890	     -7.43946008	    -22.33160259	     15.74415774	      2.02214454	    -11.33046435	     -6.22583340	     -8.27928536
      3.42000000	     -2.24737055	      4.18486658	      3.18566222	     -0.15161790	      0.91756007	     -0.41024473	     31.40281628	      0.03838117	     -8.26000971	    -56.01180932	      3.09665375	      1.96955387	      2.85645484	     -2.05604489	     -8.13265006	    -21.70157247	     15.95469568	      1.97636667	    -11.36051338	     -6.13333819	     -8.90792000
      3.43000000	     -2.29200291	      4.16777871	      2.56860460	     -0.14439967	      0.91697550	     -0.41022136	     31.94628849	     -0.01276174	     -8.84084558	    -53.16883600	      3.47170849	      1.98945385	      1.94843585	     -2.02408360	     -8.88341040	    -21.03124110	     16.16375267	      1.93881690	    -11.34533642	     -6.06639036	     -9.46105036
      3.44000000	     -2.33303765	      4.16311434	      1.92851355	     -0.13708053	      0.91630240	     -0.41001271	     32.34777047	     -0.04425240	     -9.34616406	    -50.08755944	      3.74226018	      1.92272609	      0.99220372	     -1.96458361	     -9.66985271	    -20.29585326	     16.35488545	      1.90821884	    -11.32456609	     -6.01755772	     -9.95422198
      3.45000000	     -2.37233656	      4.17061590	      1.26850621	     -0.12964917	      0.91552366	     -0.40959129	     32.61048972	     -0.05232950	     -9.78552339	    -46.78478328	      3.90434402	      1.80007207	     -0.00262522	     -1.87904183	    -10.48163086	    -19.51000753	     16.53084507	      1.89479170	    -11.29250854	     -5.99461153	    -10.39177361
      3.46000000	     -2.40809442	      4.18818197	      0.60354581	     -0.12209893	      0.91463310	     -0.40899504	     32.73173056	     -0.04061117	    -10.17655780	    -43.27582930	      3.96092583	      1.63765804	     -1.02917679	     -1.76860249	    -11.30390155	    -18.68529677	     16.69248047	      1.90846437	    -11.25126678	     -5.98714084	    -10.78071694
      3.47000000	     -2.44676409	      4.21428751	     -0.05441287	     -0.11441100	      0.91360558	     -0.40824225	     32.72221355	     -0.01362360	    -10.54614794	    -39.59123400	      3.91868626	      1.44444575	     -2.06857913	     -1.63585194	    -12.12137186	    -17.84187718	     16.83895910	      1.95414476	    -11.19153474	     -5.99042154	    -11.13582606
      3.48000000	     -2.49350827	      4.24580711	     -0.69109702	     -0.10656499	      0.91241358	     -0.40734988	     32.59787116	      0.02215170	    -10.93648074	    -35.77616490	      3.78521991	      1.21694317	     -3.10107137	     -1.48827011	    -12.90861285	    -17.00472392	     16.96773427	      2.02926250	    -11.10386275	     -5.99820942	    -11.47013334
      3.49000000	     -2.54212342	      4.28862560	     -1.28631986	     -0.09854224	      0.91104667	     -0.40636577	     32.37133830	      0.04444761	    -11.40599530	    -31.89693898	      3.59033521	      0.93578580	     -4.12209647	     -1.32260781	    -13.63328970	    -16.19161897	     17.08885284	      2.13858977	    -10.99549468	     -6.00880058	    -11.80905107
      3.50000000	     -2.57603576	      4.35465852	     -1.82477593	     -0.09032120	      0.90950369	     -0.40530539	     32.05107307	      0.03475010	    -12.00230611	    -28.03550442	      3.44666919	      0.55382954	     -5.14538832	     -1.12756244	    -14.23422758	    -15.40909965	     17.20724974	      2.32302066	    -10.88723576	     -6.03661104	    -12.17617996
      3.51000000	     -2.65256325	      4.42418485	     -2.30515156	     -0.08193402	      0.90768063	     -0.40416251	     31.74419678	      0.01649485	    -12.77382023	    -24.29822666	      3.24518806	      0.17135219	     -6.06331689	     -0.94994139	    -14.77896352	    -14.74607518	     17.33835238	      2.49346371	    -10.71124841	     -6.05440656	    -12.55371648
      3.52000000	     -2.75155326	      4.50726741	     -2.71928094	     -0.07337996	      0.90560974	     -0.40294289	     31.46576717	     -0.01829293	    -13.73160929	    -20.79100105	      3.09170669	     -0.21448938	     -6.89952738	     -0.78051416	    -15.21077968	    -14.19656802	     17.47813110	      2.68540462	    -10.49446729	     -6.07315466	    -12.95704159
